<?xml version="1.0" encoding="iso-8859-1"?>
<!-- Uploaded to: SVG Repo, www.svgrepo.com, Generator: SVG Repo Mixer Tools -->
<svg height="800px" width="800px" version="1.1" id="Layer_1" xmlns="http://www.w3.org/2000/svg" xmlns:xlink="http://www.w3.org/1999/xlink" 
	 viewBox="0 0 512 512" xml:space="preserve">
<path style="fill:#EFC27B;" d="M90.27,421.729l-45.11,0.002c-11.557-0.007-23.122,4.397-31.94,13.216
	c-17.628,17.628-17.627,46.208-0.001,63.832c17.627,17.624,46.205,17.626,63.832,0c8.813-8.814,13.218-20.365,13.217-31.917l0,0
	L90.27,421.729z"/>
<path style="fill:#D1E5F5;" d="M277.541,157.726l-149.203,149.2c-21.189,21.189-21.187,55.547,0.002,76.734
	c21.188,21.188,55.543,21.191,76.732,0l149.2-149.2L277.541,157.726z"/>
<path style="fill:#B4D8F1;" d="M128.341,383.66c21.188,21.188,55.543,21.191,76.732,0l149.2-149.2l-38.366-38.366L128.341,383.66z"
	/>
<path style="fill:#ECB45C;" d="M77.05,498.779c8.813-8.814,13.218-20.365,13.217-31.917l0.001-45.135l-77.051,77.051
	C30.846,516.403,59.424,516.406,77.05,498.779z"/>
<path id="SVGCleanerId_0" style="fill:#88888F;" d="M439.531,200.356l-25.577-25.577L512,76.733L435.267,0.001L337.22,98.045
	L311.644,72.47c-28.254-28.255-74.058-28.253-102.31,0l-17.051,17.05l76.731,76.732l76.734,76.734l76.731,76.731l17.051-17.054
	C467.782,274.413,467.783,228.608,439.531,200.356z"/>
<g>
	<path id="SVGCleanerId_0_1_" style="fill:#88888F;" d="M439.531,200.356l-25.577-25.577L512,76.733L435.267,0.001L337.22,98.045
		L311.644,72.47c-28.254-28.255-74.058-28.253-102.31,0l-17.051,17.05l76.731,76.732l76.734,76.734l76.731,76.731l17.051-17.054
		C467.782,274.413,467.783,228.608,439.531,200.356z"/>
</g>
<path style="fill:#797781;" d="M307.381,204.618l38.367,38.367l76.731,76.731l17.051-17.054c28.251-28.25,28.253-74.055,0-102.307
	l-25.577-25.577L512,76.733l-38.367-38.366L307.381,204.618z"/>
</svg>