<?xml version="1.0" standalone="no"?>
<!DOCTYPE svg PUBLIC "-//W3C//DTD SVG 20010904//EN"
 "http://www.w3.org/TR/2001/REC-SVG-20010904/DTD/svg10.dtd">
<svg version="1.0" xmlns="http://www.w3.org/2000/svg"
 width="1280.000000pt" height="1280.000000pt" viewBox="0 0 1280.000000 1280.000000"
 preserveAspectRatio="xMidYMid meet">
<metadata>
Created by potrace 1.15, written by Peter Selinger 2001-2017
</metadata>
<g transform="translate(0.000000,1280.000000) scale(0.100000,-0.100000)"
fill="#000000" stroke="none">
<path d="M9207 11471 c-59 -72 -107 -134 -107 -140 0 -5 74 -71 166 -146 91
-75 164 -141 162 -145 -4 -11 -1537 -1878 -1547 -1885 -5 -2 -165 124 -357
280 -191 157 -351 282 -355 278 -4 -4 -68 -82 -142 -172 l-135 -164 117 -96
c64 -53 176 -145 249 -205 72 -60 132 -110 132 -113 0 -2 -751 -919 -1670
-2038 -918 -1119 -1670 -2038 -1669 -2042 0 -5 108 -96 240 -203 131 -107 239
-198 239 -201 0 -16 -209 -258 -215 -249 -3 5 -12 10 -20 10 -13 0 -335 -381
-335 -397 0 -4 12 -17 27 -29 l27 -22 -33 -37 -33 -38 22 -17 c13 -10 21 -23
17 -31 -3 -8 -455 -561 -1005 -1229 -549 -668 -998 -1216 -996 -1218 1 -2 108
84 238 191 l236 195 812 989 c446 543 816 989 823 991 6 2 18 -4 25 -13 19
-23 35 -18 65 21 l27 35 22 -20 c12 -12 27 -21 33 -21 9 0 303 350 327 388 6
10 4 19 -8 27 -14 11 -4 27 85 136 56 68 105 125 110 127 5 2 115 -83 244
-190 130 -106 241 -193 247 -193 7 0 758 908 1669 2019 912 1110 1664 2025
1672 2033 15 16 19 13 438 -333 l76 -63 119 146 c65 80 129 158 141 173 l23
28 -103 84 c-56 46 -213 176 -350 288 -163 134 -244 207 -238 214 24 31 1526
1863 1537 1875 10 11 41 -10 184 -128 94 -79 173 -141 175 -139 50 53 223 274
217 279 -38 33 -1512 1239 -1515 1239 -2 0 -52 -58 -110 -129z"/>
</g>
</svg>
